<svg width="1440" height="612" viewBox="0 0 1440 612" fill="none" xmlns="http://www.w3.org/2000/svg">
<g opacity="0.9">
<path fill-rule="evenodd" clip-rule="evenodd" d="M602.696 31.2377L602.695 31.2378C419.849 53.6147 232.293 76.5681 0 56.6332V81V536V587.633C0 587.633 323.5 642.133 720 587.633C1116.5 533.133 1440 587.633 1440 587.633V536V81V56.6332C1099.35 -29.5441 855.528 0.295667 602.696 31.2377Z" fill="white"/>
<path fill-rule="evenodd" clip-rule="evenodd" d="M602.696 31.2377L602.695 31.2378C419.849 53.6147 232.293 76.5681 0 56.6332V81V536V587.633C0 587.633 323.5 642.133 720 587.633C1116.5 533.133 1440 587.633 1440 587.633V536V81V56.6332C1099.35 -29.5441 855.528 0.295667 602.696 31.2377Z" fill="url(#paint0_linear)"/>
</g>
<defs>
<linearGradient id="paint0_linear" x1="1640.47" y1="-3184.68" x2="-2015.89" y2="-1471.52" gradientUnits="userSpaceOnUse">
<stop stop-color="#6FCCDD"/>
<stop offset="0.46069" stop-color="#F27AAA"/>
<stop offset="0.885934" stop-color="#9278B6"/>
</linearGradient>
</defs>
</svg>
